<svg xmlns="http://www.w3.org/2000/svg" width="64" height="64" viewBox="0 0 64 64"><rect x="8" y="8" width="9" height="9" rx="1.5" fill="#1B1B19"></rect><rect x="21" y="8" width="9" height="9" rx="1.5" fill="#1B1B19"></rect><rect x="34" y="8" width="9" height="9" rx="1.5" fill="#1B1B19"></rect><rect x="47" y="8" width="9" height="9" rx="1.5" fill="#1B1B19"></rect><rect x="8" y="21" width="9" height="9" rx="1.5" fill="#1B1B19"></rect><rect x="21" y="21" width="9" height="9" rx="1.5" fill="#1B1B19"></rect><rect x="34" y="21" width="9" height="9" rx="1.5" fill="#C77E37"></rect><rect x="47" y="21" width="9" height="9" rx="1.5" fill="#D2D0C8"></rect><rect x="8" y="34" width="9" height="9" rx="1.5" fill="#D2D0C8"></rect><rect x="21" y="34" width="9" height="9" rx="1.5" fill="#D2D0C8"></rect><rect x="34" y="34" width="9" height="9" rx="1.5" fill="#D2D0C8"></rect><rect x="47" y="34" width="9" height="9" rx="1.5" fill="#D2D0C8"></rect><rect x="8" y="47" width="9" height="9" rx="1.5" fill="#D2D0C8"></rect><rect x="21" y="47" width="9" height="9" rx="1.5" fill="#D2D0C8"></rect><rect x="34" y="47" width="9" height="9" rx="1.5" fill="#D2D0C8"></rect><rect x="47" y="47" width="9" height="9" rx="1.5" fill="#D2D0C8"></rect></svg>